<?xml version="1.0" standalone="no"?>
<!DOCTYPE svg PUBLIC "-//W3C//DTD SVG 20010904//EN"
 "http://www.w3.org/TR/2001/REC-SVG-20010904/DTD/svg10.dtd">
<svg version="1.0" xmlns="http://www.w3.org/2000/svg"
 width="545.000000pt" height="493.000000pt" viewBox="0 0 545.000000 493.000000"
 preserveAspectRatio="xMidYMid meet">

<g transform="translate(0.000000,493.000000) scale(0.100000,-0.100000)"
fill="#e9ba52" stroke="none">
<path d="M5154 4914 c-100 -16 -249 -63 -366 -115 -328 -144 -730 -451 -1029
-785 -206 -231 -1476 -1677 -2264 -2579 -423 -484 -813 -924 -868 -978 -167
-164 -325 -282 -524 -393 -86 -47 -94 -54 -66 -54 53 0 295 66 419 115 280
109 540 276 762 489 30 28 97 100 150 161 209 237 2194 2469 2322 2610 75 83
210 236 300 340 463 536 943 940 1381 1160 38 20 69 37 69 40 0 10 -208 2
-286 -11z"/>
</g>
</svg>
